<svg xmlns="http://www.w3.org/2000/svg" width="32" height="32"><defs><linearGradient id="a" x2="0" y2=".5" spreadMethod="reflect"><stop stop-color="#908dbe" offset="0"/><stop stop-color="#5e5c84" offset=".5"/></linearGradient><linearGradient id="b" x2="1" y1="1"><stop stop-color="#999" offset="0"/><stop offset=".5"/><stop stop-color="#999" offset="1"/></linearGradient></defs><circle cx="16" cy="16" r="16" fill="url(#a)"/><rect width="3.7" height="6.2" x="20.7" y="6.5" ry="2" rx="2" transform="matrix(0.70710678,0.70710678,0.70710678,-0.70710678,0,0)"/><rect width="3.7" height="6.2" x="15.6" y="4" rx="2" ry="2"/><rect width="3.7" height="6.2" x="12.6" y="-28" ry="2" rx="2" transform="matrix(0,1,-1,0,0,0)"/><rect width="3.7" height="6.2" x="-4" y="26.9" transform="matrix(-0.70710678,0.70710678,0.70710678,0.70710678,0,0)" rx="2" ry="2"/><rect width="3.7" height="6.2" x="-3.9" y="12.2" transform="matrix(-0.70710678,0.70710678,0.70710678,0.70710678,0,0)" rx="2" ry="2"/><circle cx="17.5" cy="14.5" r="5.5" fill="none" stroke="#000" stroke-width="4"/><circle cx="12" cy="20" r="7.5" fill="url(#b)" stroke="#fff"/><circle cx="12" cy="20" r="2" stroke="#fff" stroke-width="2"/></svg>